<svg height="512" viewBox="0 0 128 128" width="512" xmlns="http://www.w3.org/2000/svg"><g><path d="m67.736 121.5-7.321-1.737 19.006-76.823 5.857 1.39z" fill="#be551c"/><path d="m102.34 38.71c3.47 3.28-.91 13.19-5.94 12-1.97 8.29-14.51 8.8-15.96 14.9l-1.43-.34-3.4-.81-1.43-.34c1.45-6.1-9.52-12.18-7.56-20.48-5.03-1.2-4.49-12.02.09-13.38-.63-3.89 2.79-10.68 8.07-9.56.51-5.42 6.21-14.25 15.85-11.96s10.77 12.74 8.79 17.81c5.22 1.37 5.22 8.97 2.92 12.16z" fill="#aac348"/><path d="m89.09 22.81-10.08 42.46-3.4-.81 10.08-42.46a1.748 1.748 0 1 1 3.4.81z" fill="#f3d232"/><path d="m80.437 53.438a1.75 1.75 0 0 1 -1.337-2.874c3.009-3.6 13.107-8.5 13.208-8.546a1.75 1.75 0 0 1 1.5 3.16c-2.5 1.191-10 5.213-12.027 7.633a1.749 1.749 0 0 1 -1.344.627z" fill="#f3d232"/><path d="m84.145 37.82a1.75 1.75 0 0 1 -1.3-2.927 22.949 22.949 0 0 1 8.585-5.248 1.75 1.75 0 1 1 .9 3.381 19.9 19.9 0 0 0 -6.9 4.221 1.747 1.747 0 0 1 -1.285.573z" fill="#f3d232"/><path d="m80.437 53.438a1.75 1.75 0 0 1 -1.7-1.351c-.722-3.073-5.614-10.034-7.315-12.222a1.75 1.75 0 0 1 2.764-2.148c.068.088 6.886 9 7.958 13.571a1.749 1.749 0 0 1 -1.3 2.1 1.728 1.728 0 0 1 -.407.05z" fill="#f3d232"/><path d="m60.264 121.5 7.321-1.737-19.006-76.823-5.857 1.39z" fill="#be551c"/><path d="m61.38 43.64c1.96 8.3-9.01 14.38-7.56 20.48l-1.43.34-3.4.81-1.43.34c-1.45-6.1-13.99-6.61-15.96-14.9-5.03 1.19-9.41-8.72-5.94-12-2.3-3.19-2.3-10.79 2.92-12.16-1.98-5.07-.85-15.52 8.79-17.81s15.34 6.54 15.85 11.96c5.28-1.12 8.7 5.67 8.07 9.56 4.58 1.36 5.12 12.18.09 13.38z" fill="#aac348"/><path d="m52.39 64.46-3.4.81-10.08-42.46a1.748 1.748 0 1 1 3.4-.81z" fill="#f3d232"/><path d="m47.562 53.438a1.749 1.749 0 0 1 -1.343-.627c-2.025-2.42-9.524-6.442-12.027-7.633a1.75 1.75 0 0 1 1.5-3.16c.1.048 10.2 4.95 13.208 8.546a1.75 1.75 0 0 1 -1.342 2.874z" fill="#f3d232"/><path d="m43.855 37.82a1.747 1.747 0 0 1 -1.295-.573 19.9 19.9 0 0 0 -6.9-4.221 1.75 1.75 0 1 1 .9-3.381 22.949 22.949 0 0 1 8.585 5.248 1.75 1.75 0 0 1 -1.3 2.927z" fill="#f3d232"/><path d="m47.563 53.438a1.728 1.728 0 0 1 -.4-.047 1.749 1.749 0 0 1 -1.3-2.1c1.072-4.567 7.89-13.483 7.958-13.571a1.75 1.75 0 1 1 2.764 2.148c-1.7 2.188-6.593 9.149-7.315 12.222a1.75 1.75 0 0 1 -1.707 1.348z" fill="#f3d232"/><path d="m67.762 121.5h-7.524l.752-79.135h6.02z" fill="#df6421"/><path d="m79.3 46c0 8.53-12.08 11.91-12.08 18.18h-6.44c0-6.27-12.08-9.65-12.08-18.18-5.18 0-7.15-10.66-3.01-13.04-1.5-3.64.25-11.04 5.64-11.16-.75-5.39 2.76-15.3 12.67-15.3s13.42 9.91 12.67 15.3c5.39.12 7.14 7.52 5.64 11.16 4.14 2.38 2.17 13.04-3.01 13.04z" fill="#c7e554"/><path d="m68.633 16.25a1.745 1.745 0 0 1 -1.321-.6 3.98 3.98 0 0 0 -3.312-1.4 1.75 1.75 0 0 1 0-3.5 7.446 7.446 0 0 1 5.953 2.6 1.751 1.751 0 0 1 -1.32 2.9z" fill="#aac348"/><g fill="#f3d232"><path d="m65.75 20.54v43.64h-3.5v-43.64a1.75 1.75 0 1 1 3.5 0z"/><path d="m64 52.392a1.75 1.75 0 0 1 -1.564-2.534c2.1-4.195 10.79-11.295 10.877-11.365a1.75 1.75 0 1 1 2.193 2.727c-2.16 1.737-8.528 7.38-9.94 10.2a1.749 1.749 0 0 1 -1.566.972z"/><path d="m64 36.34a1.75 1.75 0 0 1 -1.531-2.6 22.986 22.986 0 0 1 7.14-7.088 1.75 1.75 0 1 1 1.66 3.081 19.886 19.886 0 0 0 -5.736 5.7 1.751 1.751 0 0 1 -1.533.907z"/><path d="m64 52.392a1.749 1.749 0 0 1 -1.566-.968c-1.412-2.824-7.78-8.467-9.94-10.2a1.75 1.75 0 1 1 2.193-2.727c.087.07 8.779 7.17 10.877 11.365a1.75 1.75 0 0 1 -1.564 2.53z"/><path d="m64 36.34a1.751 1.751 0 0 1 -1.533-.9 19.886 19.886 0 0 0 -5.736-5.7 1.75 1.75 0 1 1 1.66-3.081 22.986 22.986 0 0 1 7.14 7.088 1.75 1.75 0 0 1 -1.531 2.593z"/></g></g></svg>